<svg width="660" height="267" viewBox="0 0 660 267" fill="none" xmlns="http://www.w3.org/2000/svg">
<path d="M156.631 25.7206C194.351 33.3178 246.021 46.8796 287.769 43.7141C325.096 40.8838 379.516 30.5189 392.875 25.7206C409.574 19.7227 417.433 14.7246 441.499 3.22877C465.565 -8.26706 499.455 13.2253 510.751 31.7185C525.804 56.3608 575.092 46.713 603.088 56.2095C631.083 65.7061 644.345 92.6963 655.641 111.689C666.938 130.683 655.641 201.157 629.119 233.645C602.597 266.133 522.539 239.643 488.65 239.643C454.76 239.643 439.534 249.14 426.764 256.637C413.994 264.134 319.693 266.133 282.366 239.643C245.038 213.153 227.848 224.149 193.959 224.149C160.069 224.149 104.078 274.13 43.6662 266.133C-16.7454 258.136 13.7059 176.666 0.935974 119.187C-11.834 61.7076 109.48 16.224 156.631 25.7206Z" fill="white"/>
</svg>
