<svg width="650" height="500" xmlns="http://www.w3.org/2000/svg" preserveAspectRatio="xMidYMid meet">
 <metadata>Created by potrace 1.15, written by Peter Selinger 2001-2017</metadata>

 <g>
  <title>background</title>
  <rect x="-1" y="-1" width="652" height="502" id="canvas_background" fill="none"/>
 </g>
 <g>
  <title>Layer 1</title>
  <g id="svg_42">
   <path d="m114.05001,75.899986c-13.7,4.8 -20.6,9.9 -24,17.8c-1.9,4.8 -1.6,16.4 0.9,28.3c1.2,5.8 1.9,11.7 1.5,13.1c-1.1,4.3 -50.20001,43.6 -68.10001,54.4c-1.3,0.8 -2.1,5.5 -4.1,24.9c-1.4,13.1 -2.5,24.5 -2.5,25.3c0,0.9 2.3,-0.6 5.8,-3.8c3.1,-2.9 20.5,-18.7 38.60001,-35.2c39.3,-35.9 57.1,-53.1 73,-70.4l11.8,-13l21.7,-0.7c11.9,-0.4 24.9,-1.1 28.9,-1.6c11,-1.4 20.8,-6.9 33.2,-18.7c10.3,-9.8 19.4,-20.8 18.4,-22.4c-0.3,-0.5 -27.2,-0.9 -63.7,-0.9l-63.20001,0l-8.2,2.9l0.00001,0z" id="svg_3" fill="#ad2245"/>
   <path d="m261.45001,80.199986c-3.3,6.4 -17.5,22.6 -25.1,28.8c-3.1,2.5 -5.6,4.8 -5.6,5.2c0,1.1 89.6,0.9 109.7,-0.2c19.5,-1 21.9,-1.7 33.2,-9.7c7.4,-5.3 22.8,-20.5 25,-24.6c0.8,-1.5 1.1,-3 0.7,-3.4c-0.4,-0.5 -31,-0.9 -67.9,-1.1l-67.2,-0.3l-2.8,5.3z" id="svg_6" fill="#ad2245"/>
   <path d="m410.65001,87.599986c-6.3,6.9 -14.9,15.4 -19.2,19l-7.9,6.4l96.4,-0.1c52.9,0 101.5,-0.4 107.8,-0.8c9.8,-0.7 12.7,-1.4 19.7,-4.4c18.8,-8 33.3,-21.4 33.3,-30.7c0,-2 -0.1,-2 -109.4,-2l-109.4,0l-11.3,12.6l0,0z" id="svg_7" fill="#ad2245"/>
   <path d="m107.05001,173.299986c-65.70001,60.3 -79.70001,73.4 -82.30001,76.9c-1.59999,2.1 -3.4,8.8 -6.59999,24.6c-4.90001,24.4 -5.40001,30.7 -2.5,31.7c3.29999,1 4.7,-0.4 8.59999,-8.5c4.30001,-9.1 4.80001,-9.4 13.9,-5.9l5.5,2l3.8,-2.5c2.1,-1.4 5.6,-4.6 7.7,-7.2c4.6,-5.5 7.8,-7 17.1,-7.9c6.1,-0.7 7.3,-1.2 9.5,-3.8c7.6,-9 8,-9.3 17.3,-11c4.90001,-0.9 9.5,-2.1 10.2,-2.7c0.70001,-0.6 2.3,-4.1 3.5,-7.9l2.20001,-6.9l8,-1.2c12.59999,-1.8 12.79999,-1.9 12.79999,-8.7c0,-3.2 0.40001,-6.5 1,-7.3c0.6,-0.9 3.40001,-1.6 8.5,-2.1c9.1,-0.7 11.30001,-2.4 15,-11.4l2.40001,-6l7.3,-1c4,-0.6 7.9,-1.4 8.5,-1.8c1.5,-0.9 2.9,-6.1 3.8,-14.1c0.9,-7.5 3.4,-10.2 10.1,-11.1c2.7,-0.4 5.4,-0.8 6.1,-1c0.6,-0.2 1.4,-3.4 1.8,-7.2c1,-8.9 1.6,-9.9 6.7,-10.7c7.7,-1.3 8.8,-2.6 8.8,-11.1l0,-7.4l6.9,-3.6c7.5,-3.9 10.7,-6.7 9.6,-8.4c-0.4,-0.8 -12.9,-1.1 -38.80001,-1l-38.2,0l-48.2,44.2l0.00001,0z" id="svg_11" fill="#ad2245"/>
   <path d="m247.15001,132.399986c-0.3,1.9 -0.3,4 0.1,4.6c2.8,4.5 44.4,19.2 59.9,21.2c22.6,2.8 32.8,-3.7 34.3,-22.1l0.6,-7.1l-47.1,0l-47.1,0l-0.7,3.4z" id="svg_12" fill="#ad2245"/>
   <path d="m354.15001,141.599986c-3.6,6.9 -6.8,13.4 -7.1,14.4c-0.4,1.6 0.8,1.8 17.4,2.5c9.8,0.5 62.5,0.5 117.2,0.1l99.3,-0.7l8.5,-3.4c10.8,-4.3 15.7,-7.2 22.1,-13c7.1,-6.4 9.9,-10.4 8.1,-11.6c-0.8,-0.5 -57.6,-0.9 -130.1,-0.9l-128.7,0l-6.7,12.6l0,0z" id="svg_13" fill="#ad2245"/>
   <path d="m229.75001,148.999986c-2.6,4.9 1.8,15 8.9,20.6c7.5,5.9 29.4,16.1 40.5,18.9c14.2,3.6 23.4,3.4 31.4,-0.5c7.2,-3.7 12.8,-9.5 13.8,-14.4c1.1,-6.1 0.9,-6.2 -13.9,-6.9c-22.6,-1.1 -39,-5.1 -61.8,-15.1c-11.8,-5.1 -17.2,-5.8 -18.9,-2.6z" id="svg_15" fill="#ad2245"/>
   <path d="m338.45001,172.199986c-2.1,3.7 -9.7,22.6 -9.7,24.3c0,0.3 50.6,0.5 112.4,0.5l112.4,0l8.9,-3.1c15,-5.2 24.7,-10.4 28.6,-15.1c4.2,-5.2 6.1,-8.7 5.2,-9.6c-0.4,-0.4 -58,-0.9 -128,-1l-127.3,-0.4l-2.5,4.4z" id="svg_17" fill="#ad2245"/>
   <path d="m213.75001,174.399986c-2.3,6.2 -1.4,8.9 5.4,15.6c3.5,3.4 9.5,8.5 13.2,11.3c7.3,5.5 28.2,16.6 39.6,21.1c7.3,2.9 19.8,4.4 26.2,3.2c6.8,-1.3 14.2,-10.1 14.8,-17.7l0.3,-3.2l-16.5,-2.9c-25.7,-4.4 -35.1,-7.5 -49,-15.8c-7.8,-4.7 -25.4,-12.7 -29.8,-13.6c-2.8,-0.6 -3.3,-0.3 -4.2,2z" id="svg_19" fill="#ad2245"/>
   <path d="m192.95001,195.199986c-3,3 0.8,12.6 8.1,20.5c10,10.8 33.3,27.2 51.6,36.2l11.5,5.6l9.7,0c9.4,0 9.9,-0.1 12.8,-2.9c3.7,-3.6 7,-12.9 5.5,-15.3c-0.7,-1.1 -4.3,-2.2 -11,-3.4c-18.2,-3.1 -28.5,-7.9 -57.6,-27c-10.8,-7.1 -20.8,-13.3 -22.3,-13.9c-3.5,-1.3 -6.8,-1.3 -8.3,0.2l0,0z" id="svg_21" fill="#ad2245"/>
   <path d="m322.05001,215.199986c-2.2,3.5 -4.8,7.7 -5.6,9.4c-0.9,1.8 -3.5,4.6 -5.7,6.4c-2.7,2.2 -4,3.9 -4,5.6l0,2.5l107.8,-0.3c123.6,-0.4 108.7,0.9 132.6,-11.3c14.2,-7.1 16.8,-9.3 18.5,-15.3l1,-3.2l-120.3,0l-120.2,0l-4.1,6.2z" id="svg_23" fill="#ad2245"/>
   <path d="m172.35001,219.099986c-4.6,6.6 1.4,16.1 19.7,31.6c13.5,11.5 33.2,26 44.3,32.8c9.2,5.5 10.4,5.9 17,6.3c5.1,0.3 7.9,0 10.2,-1.2c3.7,-1.9 7.5,-9.2 7,-13.7c-0.3,-3.1 -0.7,-3.4 -7.8,-5.9c-9.7,-3.4 -33.6,-14.5 -42.5,-19.7c-3.9,-2.3 -12.8,-9.1 -20,-15.3c-19.4,-16.7 -24.6,-19.5 -27.9,-14.9z" id="svg_25" fill="#ad2245"/>
   <path d="m150.25001,236.299986c-2.6,2 -1.6,11.6 2,19c7.3,14.8 45.6,55.8 60.2,64.4c2.7,1.6 6.5,2.7 10.2,3l5.9,0.6l4.5,-4.7c5.8,-6.1 10.2,-14 8.4,-15.4c-0.6,-0.5 -6.8,-4.7 -13.7,-9.2c-20.5,-13.6 -35,-24.8 -43.5,-33.8c-16.1,-17.1 -20.3,-21 -24.3,-23.1c-4.8,-2.4 -7.1,-2.6 -9.7,-0.8z" id="svg_27" fill="#ad2245"/>
   <path d="m296.85001,259.799986c-10.4,11.3 -13.1,15 -13.1,18l0,2.4l93.3,-0.4c92.4,-0.5 93.2,-0.5 99.1,-2.6c3.3,-1.2 9.3,-4 13.5,-6.3c8.3,-4.5 28.1,-18 28.1,-19.2c0,-0.4 -47.9,-0.7 -106.4,-0.7l-106.5,0l-8,8.8l0,0z" id="svg_29" fill="#ad2245"/>
   <path d="m126.05001,253.799986c-4,2.5 -5.4,14.1 -2.9,22.6c2.7,8.8 32.2,51 43.5,62.3c6.9,6.8 16.8,12.1 24.1,13c8,0.9 16.1,-4.3 20.9,-13.5c1.8,-3.5 -0.3,-6 -11.7,-13.6c-11.5,-7.7 -21.3,-17.3 -34.8,-34.1c-24.1,-30 -34.40001,-39.7 -39.10001,-36.7l0.00001,0z" id="svg_31" fill="#ad2245"/>
   <path d="m97.25,275.299986c-4.5,3.4 -0.7,24 7.3,39.6c12.7,25.1 30,50.4 38.10001,55.8c6.5,4.4 21.6,2.4 28.1,-3.7c5.3,-4.9 4.7,-6 -14.2,-25.7c-9.5,-9.9 -18.7,-20.4 -20.4,-23.4c-1.7,-3 -6,-10.5 -9.4,-16.7c-6.6,-11.6 -13.6,-21.1 -18,-24.4c-3.6,-2.6 -9,-3.3 -11.5,-1.5l-0.00001,0z" id="svg_33" fill="#ad2245"/>
   <path d="m63.75,289.999986c-1.6,1.6 -2,3.3 -2,9.4c0,14.4 4.20001,28.1 15.1,49.6c11.8,23.3 22.1,36.9 31.9,42.1c3.8,2 6,2.4 13.70001,2.4c9.09999,0 9.2,0 12.7,-3.4c2,-1.9 3.59999,-3.9 3.59999,-4.3c0,-0.4 -2.79999,-4.1 -6.29999,-8.1c-16.3,-18.7 -20.60001,-24.7 -31.4,-43.7c-1.1,-2 -5,-10.3 -8.8,-18.5c-8.9,-19.4 -11.9,-24.4 -16.1,-26.1c-4.8,-2 -10,-1.8 -12.4,0.6l0,0l-0.00001,0z" id="svg_35" fill="#ad2245"/>
   <path d="m269.15001,295.299986c-9.4,6.9 -18,17.1 -22.6,26.5c-3.3,6.8 -3.8,8.6 -2.7,9.3c3.4,2.1 82,0.6 110.4,-2.2c26,-2.5 53.7,-10.3 76.1,-21.4c11.8,-5.8 22.4,-13.2 22.4,-15.6c0,-0.5 -37.3,-0.9 -88.9,-0.9l-88.9,0l-5.8,4.3l0,0z" id="svg_37" fill="#ad2245"/>
   <path d="m33.25,303.399986c-3.5,3.5 -4.1,10 -2.2,24.7c2.2,16.9 7.4,36.8 13.5,51.7c10.3,25.1 17.9,33.5 31.7,34.9c9.3,1 19.4,-3 22.6,-8.8c1.3,-2.6 0.6,-3.8 -9.9,-15.3c-4.5,-4.9 -9.5,-11.3 -11.2,-14.2c-7.6,-13.6 -19.4,-43 -20.9,-52.4c-2.7,-16.3 -16.1,-28.1 -23.6,-20.6l0,0z" id="svg_39" fill="#ad2245"/>
   <path d="m10.05,323.699986c-0.5,1.6 -0.8,21 -0.8,43.3c0,36.70001 0.2,40.90001 1.8,45.20001c3.1,7.89999 12.8,14.8 21.1,14.8c9.9,0 24.6,-4.1 24.6,-6.9c0,-0.4 -3.4,-5.5 -7.5,-11.2c-4.2,-5.7 -8.9,-12.7 -10.6,-15.6c-5.2,-9.1 -14.2,-38.10001 -15.9,-51.30001c-1.2,-8.6 -3.6,-16.7 -5.8,-19.3c-2.4,-2.7 -6,-2.2 -6.9,1l0,0z" id="svg_41" fill="#ad2245"/>
  </g>
 </g>
</svg>