<svg width="650" height="502" xmlns="http://www.w3.org/2000/svg" preserveAspectRatio="xMidYMid meet">
 <metadata>Created by potrace 1.15, written by Peter Selinger 2001-2017</metadata>

 <g>
  <title>background</title>
  <rect x="-1" y="-1" width="652" height="504" id="canvas_background" fill="none"/>
 </g>
 <g>
  <title>Layer 1</title>
  <g id="svg_42">
   <path d="m400.250029,74.903245c0,2.1 9.69999,13.6 19,22.4c12.39999,11.8 22.19999,17.3 33.19999,18.7c4,0.5 17,1.2 28.9,1.6l21.7,0.7l11.8,13c16,17.4 34.60001,35.3 73.40001,70.7c17.9,16.3 35.1,32 38.3,34.9c3.4,3.2 5.7,4.7 5.7,3.8c0,-0.8 -1.1,-12.2 -2.5,-25.3c-1.4,-13.1 -2.5,-23.9 -2.5,-24c0,-0.1 -1.9,-1.3 -4.3,-2.6c-7.8,-4.4 -50.7,-37.7 -61.9,-48.1c-4.5,-4.1 -4.7,-5.8 -1.7,-19c2.9,-13.2 2.4,-24.8 -1.4,-30.5c-3.6,-5.6 -9.1,-9.4 -19.1,-13.4l-8.1,-3.3l-65.20001,-0.3c-39.7,-0.1 -65.3,0.1 -65.3,0.7l0,0l0.00001,0z" id="svg_2" fill="#ab0b3d"/>
   <path d="m9.250019,78.003245c0,9.3 14.5,22.7 33.3,30.7c7,3 9.9,3.7 19.7,4.4c6.3,0.4 54.9,0.8 107.8,0.8l96.4,0.1l-7.9,-6.4c-4.3,-3.6 -12.9,-12.1 -19.2,-19l-11.3,-12.6l-109.4,0c-109.3,0 -109.4,0 -109.4,2l0,0z" id="svg_4" fill="#ab0b3d"/>
   <path d="m253.550019,76.703245c-1.8,0.2 -3.3,0.9 -3.3,1.5c0,3.7 17,20.9 28.3,28.7c9.3,6.4 12.3,7.1 31,8.1c20.1,1.1 109.7,1.3 109.7,0.2c0,-0.4 -2.5,-2.7 -5.6,-5.2c-7.6,-6.2 -21.8,-22.4 -25.1,-28.7l-2.8,-5.3l-64.5,0.2c-35.5,0 -66,0.3 -67.7,0.5z" id="svg_5" fill="#ab0b3d"/>
   <path d="m30.350019,130.903245c-1.8,1.2 1,5.2 8.1,11.6c6.5,5.8 11.3,8.7 22.4,13.1l8.8,3.6l116.2,0.1c63.9,0.1 116.6,-0.2 117.1,-0.6c0.4,-0.5 -2.4,-7 -6.4,-14.5l-7.1,-13.7l-128.9,-0.2c-73.3,-0.2 -129.4,0.1 -130.2,0.6z" id="svg_8" fill="#ab0b3d"/>
   <path d="m308.550019,137.103245c1.5,18.4 11.7,24.9 34.3,22.1c15.5,-2 57.10001,-16.7 59.90001,-21.2c0.4,-0.6 0.4,-2.7 0.1,-4.6l-0.7,-3.4l-47.10001,0l-47.1,0l0.6,7.1z" id="svg_9" fill="#ab0b3d"/>
   <path d="m417.750029,131.103245c-1.10001,1.7 2.1,4.5 9.6,8.4l6.9,3.6l0,7.4c0,8.5 1.1,9.8 8.8,11.1c2.3,0.4 4.5,1.2 4.89999,1.8c0.4,0.6 1.2,4.4 1.7,8.6l1.10001,7.5l5.5,0.8c9.3,1.3 10.6,3.2 12.5,17.8c0.89999,7.1 2.19999,8.1 10.89999,9.4l7.7,1l2.4,6c3.7,9 5.9,10.7 15,11.4c5.1,0.5 7.9,1.2 8.5,2.1c0.6,0.8 1,4.1 1,7.3c0,6.8 0.2,6.9 12.8,8.7l8.1,1.2l2,6.8c1.2,3.7 2.7,7.3 3.5,7.9c0.8,0.7 5.4,1.9 10.3,2.8c9.3,1.7 9.7,2 17.3,11c2.2,2.6 3.4,3.1 9.5,3.8c9.3,0.9 12.5,2.4 17.1,7.9c2.1,2.6 5.6,5.8 7.7,7.2l3.8,2.5l5.5,-2c9.1,-3.5 9.6,-3.2 14,5.9c3.7,7.9 5.6,9.6 8.8,8.4c1.2,-0.4 1.6,-1.9 1.6,-5.3c0,-7.1 -8.6,-48 -10.6,-50.5c-2.9,-3.6 -12.3,-12.4 -62,-58c-26.4,-24.2 -52.7,-48.4 -58.5,-53.8l-10.7,-9.8l-38,0c-25.8,0 -38.3,0.3 -38.7,1.1l0,0l0.00001,0z" id="svg_10" fill="#ab0b3d"/>
   <path d="m402.750029,152.103245c-22.4,10 -40.60001,14.5 -63.20001,15.6c-14.8,0.7 -15,0.8 -13.9,6.9c1,4.9 6.6,10.7 13.8,14.4c5.2,2.6 7.2,3 13.8,3c11.6,0 25.1,-3.8 40.50001,-11.4c19.3,-9.5 25.2,-14.9 26.9,-24.8c1.6,-8.9 -3.8,-10 -17.9,-3.7z" id="svg_14" fill="#ab0b3d"/>
   <path d="m66.550019,169.703245c-7.3,0.2 -13.3,0.7 -13.3,1.2c0,1.7 6.4,10.3 9.4,12.6c4,3 13.3,7.3 24.9,11.4l8.9,3.1l112.4,0c61.8,0 112.4,-0.2 112.4,-0.5c0,-1.7 -7.6,-20.6 -9.6,-24.3l-2.5,-4.2l-114.7,0.2c-63.1,0.1 -120.7,0.4 -127.9,0.5z" id="svg_16" fill="#ab0b3d"/>
   <path d="m426.750029,175.003245c-2.7,1.1 -9.5,4.3 -15,7.1c-5.5,2.8 -13.80001,7.1 -18.5,9.5c-9.80001,5 -19,7.6 -41.00001,11.4l-15.5,2.7l0.3,3.2c0.6,7.5 8,16.4 14.8,17.7c6.2,1.1 19.2,-0.5 26.3,-3.3c11.3,-4.4 32.3,-15.6 39.50001,-21c3.7,-2.8 9.7,-7.9 13.2,-11.3c6.8,-6.6 7.7,-9.4 5.4,-15.4c-1.10001,-3.1 -2.80001,-3.2 -9.5,-0.6z" id="svg_18" fill="#ab0b3d"/>
   <path d="m448.450019,196.103245c-1.3,0.5 -11.19999,6.7 -22,13.8c-29.1,19.1 -39.4,23.9 -57.6,27c-6.7,1.2 -10.3,2.3 -11,3.4c-1.5,2.4 1.8,11.7 5.5,15.3c2.9,2.8 3.4,2.9 12.8,2.9l9.7,0l11.5,-5.6c18.3,-9 41.6,-25.4 51.6,-36.2c4.7,-5.1 9.30001,-13.5 9.30001,-17c0,-4.3 -4.2,-5.9 -9.80001,-3.6l0,0z" id="svg_20" fill="#ab0b3d"/>
   <path d="m84.350019,213.203245c1.7,6 4.3,8.2 18.5,15.3c23.9,12.2 9,10.9 132.7,11.3l107.7,0.3l0,-2.5c0,-1.7 -1.3,-3.4 -4,-5.6c-2.2,-1.8 -4.8,-4.6 -5.7,-6.4c-0.8,-1.7 -3.4,-5.9 -5.6,-9.4l-4.1,-6.2l-120.2,0l-120.3,0l1,3.2z" id="svg_22" fill="#ab0b3d"/>
   <path d="m468.750029,220.003245c-2.2,1.1 -10.3,7.5 -18,14.1c-7.7,6.7 -17.1,13.9 -21,16.2c-8.9,5.2 -32.8,16.3 -42.5,19.7c-7,2.4 -7.5,2.8 -7.80001,5.8c-0.19999,1.7 0.60001,5.1 1.7,7.6c2.7,6.2 6.3,7.9 15.5,7.4c6.60001,-0.4 7.8,-0.8 17,-6.3c11.10001,-6.8 30.8,-21.3 44.30001,-32.8c18.2,-15.4 24.3,-25 19.7,-31.5c-1.9,-2.7 -3.8,-2.8 -8.9,-0.2z" id="svg_24" fill="#ab0b3d"/>
   <path d="m488.550029,239.003245c-2.9,1.7 -8,6.3 -12,10.7c-15.3,17.5 -27.3,27.5 -54.3,45.3c-6.9,4.5 -13.10001,8.7 -13.7,9.2c-1.8,1.4 2.6,9.3 8.39999,15.4l4.5,4.7l5.9,-0.6c3.7,-0.3 7.5,-1.4 10.2,-3c7.1,-4.2 20.6,-16.6 34.70001,-32.1c22.1,-24.1 27.5,-32.4 28.7,-43.8c0.5,-5.2 0.4,-6.3 -1.2,-7.4c-2.8,-2.1 -5.5,-1.7 -11.2,1.6z" id="svg_26" fill="#ab0b3d"/>
   <path d="m132.250019,252.703245c0,1.3 20.3,15 29.2,19.8c15.7,8.3 7.1,7.7 111.6,8.2l93.2,0.5l0,-2.4c0,-3 -2.7,-6.7 -13.1,-18l-8,-8.8l-106.5,0c-58.5,0 -106.4,0.3 -106.4,0.7l0,0z" id="svg_28" fill="#ab0b3d"/>
   <path d="m518.350029,255.703245c-5.2,2.6 -15,12.9 -30.8,32.3c-17.6,21.8 -25.1,29.3 -37.60001,37.6c-11.3,7.6 -13.4,10.1 -11.6,13.6c4.8,9.2 12.9,14.4 20.9,13.5c7.1,-0.8 17.1,-6.2 23.6,-12.5c11.2,-10.9 41.30001,-54 44.00001,-62.9c2.5,-8.4 1,-20 -2.9,-22.5c-1.6,-1 -1.7,-1 -5.6,0.9z" id="svg_30" fill="#ab0b3d"/>
   <path d="m543.750029,276.403245c-5.8,2.5 -14.4,14 -24.1,32.1c-7.3,13.7 -9.5,16.6 -27.1,34.8c-17.9,18.6 -18.6,19.8 -13.3,24.7c5.9,5.5 20.4,7.9 26.9,4.5c3.8,-1.9 12,-11.2 18.6,-21c9.9,-14.9 23.2,-39.4 25.9,-47.8c7.3,-22.9 4.9,-32.4 -6.9,-27.3z" id="svg_32" fill="#ab0b3d"/>
   <path d="m573.650029,290.403245c-3.6,1.6 -7.4,7.4 -12.9,19.6c-14.4,32.2 -22,44.3 -43.2,68.7c-3.5,4 -6.3,7.7 -6.3,8.1c0,0.4 1.6,2.4 3.6,4.3c3.5,3.4 3.6,3.4 12.7,3.4c7.7,0 9.9,-0.4 13.7,-2.4c10.3,-5.5 20.6,-19.3 33.1,-44.6c9.6,-19.5 12.9,-30.3 13.6,-44.1c0.5,-9.4 0.4,-10.3 -1.6,-12.3c-2.5,-2.5 -7.9,-2.8 -12.7,-0.7l0,0z" id="svg_34" fill="#ab0b3d"/>
   <path d="m197.250019,292.903245c0,2.4 10.6,9.8 22.4,15.6c22.4,11.1 50.1,18.9 76.1,21.4c28.5,2.8 107.00001,4.3 110.40001,2.2c1.1,-0.7 0.6,-2.5 -2.8,-9.4c-4.8,-9.7 -13.3,-19.6 -22.5,-26.4l-5.8,-4.3l-88.90001,0c-51.6,0 -88.9,0.4 -88.9,0.9l0,0z" id="svg_36" fill="#ab0b3d"/>
   <path d="m605.650029,303.903245c-5.6,3.4 -12.3,14.4 -12.4,20.2c0,5.4 -8.9,28.8 -17.5,46.4c-4.5,9 -7.2,12.9 -14.2,20.6c-11,12 -11.7,13.2 -10.4,15.8c3.2,5.8 13.3,9.8 22.6,8.8c13.9,-1.4 21.5,-9.8 31.7,-34.9c8.9,-21.9 16.2,-57.1 14.4,-69.2c-1.3,-8.7 -7.3,-11.9 -14.2,-7.7l0,0z" id="svg_38" fill="#ab0b3d"/>
   <path d="m633.050029,323.703245c-2.2,2.6 -4.6,10.6 -5.9,19.8c-1.2,8.7 -6,26.1 -10.9,39.6c-2.9,8 -7.6,15.8 -20,33.2l-3.5,4.9l2.3,1.8c2.6,2.2 10,3.9 19.7,4.7c7.9,0.6 12.3,-1 18.9,-6.8c6.9,-6 7.1,-7.5 7.1,-52.9c0,-22.3 -0.4,-41.7 -0.8,-43.3c-0.9,-3.2 -4.5,-3.7 -6.9,-1l0,0z" id="svg_40" fill="#ab0b3d"/>
  </g>
 </g>
</svg>